<svg width="22" height="22" viewBox="0 0 22 22" fill="none" xmlns="http://www.w3.org/2000/svg">
<path d="M20.68 0H6.6C6.24991 0 5.91417 0.139071 5.66662 0.386619C5.41907 0.634167 5.28 0.969914 5.28 1.32V5.28H1.32C0.969914 5.28 0.634167 5.41907 0.386619 5.66662C0.139071 5.91417 0 6.24991 0 6.6V20.68C0 21.0301 0.139071 21.3658 0.386619 21.6134C0.634167 21.8609 0.969914 22 1.32 22H15.4C15.7501 22 16.0858 21.8609 16.3334 21.6134C16.5809 21.3658 16.72 21.0301 16.72 20.68V16.72H20.68C21.0301 16.72 21.3658 16.5809 21.6134 16.3334C21.8609 16.0858 22 15.7501 22 15.4V1.32C22 0.969914 21.8609 0.634167 21.6134 0.386619C21.3658 0.139071 21.0301 0 20.68 0ZM14.08 19.36H2.64V7.92H14.08V19.36ZM19.36 14.08H16.72V6.6C16.72 6.24991 16.5809 5.91417 16.3334 5.66662C16.0858 5.41907 15.7501 5.28 15.4 5.28H7.92V2.64H19.36V14.08Z" fill="white"/>
</svg>
