<svg width="50" height="50" viewBox="0 0 50 50" fill="none" xmlns="http://www.w3.org/2000/svg">
<path d="M25 13C25.45 13 25.894 13.024 26.332 13.0732C26.4886 13.0905 26.6403 13.1386 26.7784 13.2145C26.9165 13.2905 27.0383 13.3929 27.1368 13.5159C27.2353 13.6389 27.3086 13.7801 27.3525 13.9315C27.3964 14.0828 27.4101 14.2414 27.3928 14.398C27.3755 14.5546 27.3274 14.7063 27.2515 14.8444C27.1755 14.9825 27.0731 15.1043 26.9501 15.2028C26.8271 15.3013 26.6859 15.3746 26.5345 15.4185C26.3832 15.4624 26.2246 15.4761 26.068 15.4588C24.0905 15.2376 22.093 15.6363 20.352 16.5999C18.611 17.5635 17.2124 19.0443 16.3498 20.8374C15.4871 22.6306 15.203 24.6475 15.5367 26.6092C15.8704 28.5709 16.8054 30.3805 18.2125 31.7875C19.6195 33.1946 21.4291 34.1296 23.3908 34.4633C25.3525 34.797 27.3694 34.5129 29.1626 33.6502C30.9557 32.7876 32.4365 31.389 33.4001 29.648C34.3637 27.907 34.7624 25.9095 34.5412 23.932C34.5239 23.7754 34.5376 23.6168 34.5815 23.4655C34.6254 23.3141 34.6987 23.1729 34.7972 23.0499C34.9962 22.8015 35.2857 22.6422 35.602 22.6072C35.9184 22.5722 36.2357 22.6643 36.4841 22.8632C36.6071 22.9617 36.7095 23.0835 36.7855 23.2216C36.8615 23.3597 36.9095 23.5114 36.9268 23.668C36.9748 24.106 37 24.55 37 25C37 31.6276 31.6276 37 25 37C18.3724 37 13 31.6276 13 25C13 18.3724 18.3724 13 25 13ZM24.9616 20.0524C25.0407 20.3605 24.9942 20.6873 24.8325 20.9612C24.6707 21.235 24.4068 21.4334 24.0988 21.5128C23.2526 21.7345 22.516 22.2564 22.0264 22.9813C21.5368 23.7061 21.3277 24.5843 21.438 25.452C21.5484 26.3198 21.9707 27.1177 22.6261 27.6969C23.2815 28.2762 24.1253 28.5972 25 28.6C25.7981 28.5997 26.5734 28.3343 27.2043 27.8456C27.8353 27.357 28.2861 26.6726 28.486 25.9C28.5656 25.5918 28.7643 25.3278 29.0385 25.1661C29.3127 25.0044 29.64 24.9582 29.9482 25.0378C30.2564 25.1174 30.5204 25.3161 30.6821 25.5903C30.8438 25.8645 30.89 26.1918 30.8104 26.5C30.4423 27.9111 29.573 29.1399 28.365 29.9569C27.157 30.7739 25.6928 31.1231 24.2461 30.9394C22.7994 30.7557 21.469 30.0515 20.5036 28.9585C19.5382 27.8655 19.0037 26.4583 19 25C19.0002 23.6698 19.4423 22.3773 20.2568 21.3256C21.0713 20.2739 22.2121 19.5226 23.5 19.1896C23.6526 19.1503 23.8115 19.1414 23.9676 19.1634C24.1236 19.1855 24.2738 19.2381 24.4095 19.3182C24.5452 19.3984 24.6639 19.5044 24.7586 19.6304C24.8533 19.7564 24.9223 19.8998 24.9616 20.0524ZM32.8048 13.1524C33.0238 13.2432 33.2111 13.3969 33.3428 13.594C33.4746 13.7911 33.545 14.0229 33.5452 14.26V16.456H35.74C35.9773 16.4561 36.2093 16.5265 36.4066 16.6583C36.6038 16.7902 36.7576 16.9776 36.8484 17.1968C36.9392 17.4161 36.963 17.6573 36.9167 17.89C36.8704 18.1228 36.7562 18.3366 36.5884 18.5044L32.344 22.744C32.119 22.9691 31.8138 23.0955 31.4956 23.0956H28.6L26.4064 25.2904C26.1812 25.5156 25.8758 25.6421 25.5574 25.6421C25.239 25.6421 24.9336 25.5156 24.7084 25.2904C24.4832 25.0652 24.3567 24.7598 24.3567 24.4414C24.3567 24.123 24.4832 23.8176 24.7084 23.5924L26.9032 21.4V18.5032C26.9033 18.185 27.0297 17.8798 27.2548 17.6548L31.4968 13.4116C31.6646 13.2437 31.8785 13.1293 32.1113 13.083C32.3441 13.0366 32.5855 13.0604 32.8048 13.1512V13.1524ZM31.1452 17.1568L29.3032 19V20.6968H31L32.8432 18.8548H32.3452C32.0269 18.8548 31.7217 18.7284 31.4967 18.5033C31.2716 18.2783 31.1452 17.9731 31.1452 17.6548V17.1568Z" fill="#5728CC"/>
</svg>
