<svg width="36" height="36" viewBox="0 0 36 36" fill="none" xmlns="http://www.w3.org/2000/svg">
<path d="M18 0C13.2272 0 8.64563 1.89759 5.27344 5.27203C1.89777 8.64781 0.000935072 13.226 0 18C0 22.772 1.89844 27.3535 5.27344 30.728C8.64563 34.1024 13.2272 36 18 36C22.7728 36 27.3544 34.1024 30.7266 30.728C34.1016 27.3535 36 22.772 36 18C36 13.228 34.1016 8.64647 30.7266 5.27203C27.3544 1.89759 22.7728 0 18 0Z" fill="url(#paint0_linear_11_3395)"/>
<path d="M8.09033 17.6032C13.3258 15.2749 16.8161 13.7398 18.5613 12.9982C23.5499 10.8804 24.5852 10.5126 25.2613 10.5001C25.41 10.4977 25.7411 10.5352 25.9572 10.7135C26.1367 10.8639 26.1872 11.0673 26.2125 11.2101C26.2349 11.3527 26.2658 11.6779 26.2405 11.9317C25.9712 14.8306 24.8012 21.8654 24.2064 25.1124C23.9567 26.4862 23.4601 26.9468 22.9803 26.9918C21.9366 27.0898 21.1454 26.2883 20.1353 25.6125C18.5557 24.5547 17.6635 23.8964 16.1287 22.8643C14.3555 21.6715 15.5059 21.0158 16.5159 19.9444C16.7796 19.664 21.3754 15.3972 21.4624 15.0102C21.4736 14.9618 21.4848 14.7813 21.3782 14.6862C21.2744 14.5908 21.1201 14.6235 21.0079 14.6493C20.8479 14.686 18.3256 16.3898 13.4324 19.7605C12.717 20.263 12.0688 20.5079 11.4853 20.495C10.8455 20.481 9.61103 20.1249 8.69356 19.8207C7.57127 19.4474 6.67624 19.2501 6.7548 18.6161C6.79408 18.2861 7.24019 17.9484 8.09033 17.6032Z" fill="white"/>
<defs>
<linearGradient id="paint0_linear_11_3395" x1="1800" y1="0" x2="1800" y2="3600" gradientUnits="userSpaceOnUse">
<stop stop-color="#2AABEE"/>
<stop offset="1" stop-color="#229ED9"/>
</linearGradient>
</defs>
</svg>
