<svg width="50" height="50" viewBox="0 0 50 50" fill="none" xmlns="http://www.w3.org/2000/svg">
<path d="M24.4396 18.9652C24.721 19.2095 25.1023 19.3467 25.5 19.3467C25.8977 19.3467 26.279 19.2095 26.5604 18.9652L28.5612 17.2261C28.7707 17.0437 28.9134 16.8114 28.9712 16.5585C29.029 16.3056 28.9993 16.0435 28.8858 15.8054C28.7724 15.5672 28.5803 15.3635 28.3337 15.2202C28.0872 15.0768 27.7973 15.0002 27.5008 15H23.4992C23.2027 15.0002 22.9128 15.0768 22.6663 15.2202C22.4197 15.3635 22.2276 15.5672 22.1141 15.8054C22.0007 16.0435 21.971 16.3056 22.0288 16.5585C22.0866 16.8114 22.2293 17.0437 22.4388 17.2261L24.4396 18.9652Z" fill="#DB4254"/>
<path fill-rule="evenodd" clip-rule="evenodd" d="M27.4006 24.4986L27.7099 24.2267C30.9776 21.3516 33.6945 17.8823 35.7225 13.9949C35.9061 13.6432 36.0014 13.2505 36 12.8519C35.9986 12.4534 35.9005 12.0614 35.7146 11.711C35.5286 11.3607 35.2605 11.0628 34.9343 10.8441C34.6081 10.6253 34.2339 10.4926 33.8451 10.4576L31.9032 10.2853C27.6425 9.9049 23.3575 9.9049 19.0969 10.2853L17.1549 10.4576C16.7661 10.4926 16.3919 10.6253 16.0657 10.8441C15.7395 11.0628 15.4714 11.3607 15.2854 11.711C15.0995 12.0614 15.0014 12.4534 15 12.8519C14.9986 13.2505 15.0939 13.6432 15.2775 13.9949C17.3056 17.8823 20.0224 21.3516 23.2901 24.2267L23.5994 24.4986L23.2901 24.7706C20.0221 27.6467 17.3052 31.1171 15.2775 35.0058C15.0943 35.3574 14.9993 35.7499 15.0009 36.1483C15.0024 36.5466 15.1006 36.9383 15.2865 37.2884C15.4724 37.6386 15.7404 37.9362 16.0664 38.1549C16.3924 38.3735 16.7664 38.5063 17.1549 38.5414L19.0969 38.7137C23.3579 39.0954 27.6421 39.0954 31.9032 38.7137L33.8451 38.5414C34.2336 38.5063 34.6076 38.3735 34.9336 38.1549C35.2596 37.9362 35.5276 37.6386 35.7135 37.2884C35.8994 36.9383 35.9976 36.5466 35.9991 36.1483C36.0007 35.7499 35.9057 35.3574 35.7225 35.0058C33.6946 31.1178 30.9777 27.6478 27.7099 24.7723L27.4006 24.502V24.4986ZM25.5066 22.8195L25.5099 22.8161L26.0905 22.306C29.0792 19.6763 31.5721 16.511 33.4465 12.9661L31.6865 12.809C27.57 12.4415 23.43 12.4415 19.3135 12.809L17.5519 12.9661C19.4266 16.5118 21.9201 19.6776 24.9095 22.3077L25.4884 22.8178C25.49 22.8187 25.4917 22.8192 25.4934 22.8195H25.5C25.5022 22.82 25.5044 22.82 25.5066 22.8195ZM25.5099 26.1811L25.5066 26.1778H25.5C25.4978 26.1773 25.4956 26.1773 25.4934 26.1778L25.4884 26.1811L24.9095 26.6913C21.9201 29.3214 19.4267 32.4872 17.5519 36.0328L19.3119 36.1882C23.4307 36.5565 27.5693 36.5565 31.6865 36.1882L33.4465 36.0311C31.5722 32.4857 29.0793 29.3198 26.0905 26.6896L25.5116 26.1811H25.5099Z" fill="#DB4254"/>
</svg>
